<svg width="658" height="658" viewBox="0 0 658 658" fill="none" xmlns="http://www.w3.org/2000/svg">
<circle opacity="0.4" cx="329" cy="329.001" r="327.758" transform="rotate(60 329 329.001)" stroke="url(#paint0_linear_1628_69236)"/>
<path d="M268.87 286.988C250.227 311.69 251.458 346.59 272.609 369.94L250.516 391.944C217.164 356.42 215.867 301.877 246.627 264.835L268.87 286.988Z" stroke="url(#paint1_linear_1628_69236)" style="mix-blend-mode:color-dodge"/>
<path d="M385.468 286.988C404.111 311.69 402.88 346.59 381.729 369.94L403.822 391.944C437.174 356.42 438.471 301.877 407.71 264.835L385.468 286.988Z" stroke="url(#paint2_linear_1628_69236)" style="mix-blend-mode:color-dodge"/>
<g opacity="0.2">
<path d="M422.473 418.153C475.111 365.727 475.111 280.787 422.473 228.361C369.835 175.934 284.551 175.934 231.913 228.361C179.275 280.787 179.275 365.727 231.913 418.153C284.551 470.58 369.835 470.58 422.473 418.153ZM263.496 259.768C298.701 224.705 355.733 224.705 390.938 259.768C426.143 294.831 426.143 351.635 390.938 386.698C355.733 421.761 298.701 421.761 263.496 386.698C228.291 351.635 228.291 294.831 263.496 259.768Z" fill="url(#paint3_linear_1628_69236)" style="mix-blend-mode:color-dodge"/>
</g>
<path d="M344.06 214.017C396.081 222.096 436.348 266.037 438.774 319.749L494.049 319.861C491.494 235.613 426.538 166.848 343.914 158.298L344.026 214.051L344.06 214.017Z" fill="url(#paint4_linear_1628_69236)" style="mix-blend-mode:color-dodge"/>
<path d="M344.652 490.497C423.732 482.648 486.378 419.525 493.545 340.238L437.86 340.126C431.177 388.879 393.053 427.413 344.505 434.779L344.618 490.532L344.652 490.497Z" fill="url(#paint5_linear_1628_69236)" style="mix-blend-mode:color-dodge"/>
<path d="M303.127 161.111C224.046 168.96 161.401 232.084 154.234 311.37L209.918 311.483C216.602 262.729 254.726 224.195 303.273 216.83L303.161 161.077L303.127 161.111Z" fill="url(#paint6_linear_1628_69236)" style="mix-blend-mode:color-dodge"/>
<path d="M268.87 286.988C250.227 311.69 251.458 346.59 272.609 369.94L250.516 391.944C217.164 356.42 215.867 301.877 246.627 264.835L268.87 286.988Z" stroke="url(#paint7_linear_1628_69236)" style="mix-blend-mode:color-dodge"/>
<g opacity="0.1">
<path d="M258.087 162.708C164.546 198.684 117.993 303.345 154.115 396.509C190.237 489.674 295.369 536.04 388.91 500.063C482.451 464.086 529.005 359.378 492.882 266.213C456.76 173.048 351.629 126.683 258.087 162.659V162.708ZM367.227 444.222C304.641 468.271 234.376 437.296 210.182 374.962C186.036 312.627 217.136 242.646 279.722 218.549C342.308 194.5 412.573 225.475 436.767 287.809C460.913 350.143 429.813 420.125 367.227 444.222Z" fill="url(#paint8_linear_1628_69236)" style="mix-blend-mode:color-dodge"/>
</g>
<path opacity="0.5" d="M152.987 405.639C188.63 486.806 276.594 530.38 361.516 511.9L394.334 596.889C262.521 632.723 122.497 565.837 68.6606 438.185L152.987 405.639Z" stroke="url(#paint9_linear_1628_69236)"/>
<path opacity="0.5" d="M56.8443 405.338C21.1368 279.649 80.2615 145.938 197.384 86.6695L230.378 171.466C159.839 211.771 123.769 293.712 142.219 372.629L56.8443 405.338Z" stroke="url(#paint10_linear_1628_69236)"/>
<path opacity="0.5" d="M512.317 281.474L597.238 248.664C632.694 374.788 573.901 508.896 457.432 568.303L424.621 483.265C494.792 442.834 530.671 360.635 512.317 281.474Z" stroke="url(#paint11_linear_1628_69236)"/>
<path d="M306.618 489.33L306.512 436.712C259.675 430.347 222.523 393.331 215.954 346.562L163.336 346.456C170.475 422.091 230.916 482.396 306.652 489.296L306.618 489.33Z" fill="url(#paint12_linear_1628_69236)" style="mix-blend-mode:color-dodge"/>
<path opacity="0.5" d="M288.702 145.58L257.664 65.4454C378.118 31.1995 506.448 87.7046 562.307 199.421L481.957 230.377C443.867 162.385 364.705 127.597 288.702 145.58Z" stroke="url(#paint13_linear_1628_69236)"/>
<g style="mix-blend-mode:color" opacity="0.5">
<path fill-rule="evenodd" clip-rule="evenodd" d="M285.223 154.555L269.581 114.225C368.241 85.9923 473.469 132.262 519.057 223.792L479.619 238.965C484.713 247.526 489.164 256.622 492.883 266.213C494.962 271.577 496.767 276.978 498.306 282.403L547.5 263.472C576.814 366.545 528.522 476.255 432.807 524.641L426.737 508.972C410.343 517.825 393.005 524.319 375.228 528.454L382.825 548.065C274.699 577.597 159.717 522.862 115.723 418.346L156.61 402.616C155.745 400.604 154.913 398.568 154.115 396.509C151.56 389.919 149.418 383.271 147.678 376.594L106.548 392.421C77.1863 289.396 125.478 179.686 221.193 131.252H221.241L237.144 172.304C243.83 168.715 250.817 165.504 258.087 162.708V162.66C267.05 159.212 276.119 156.521 285.223 154.555ZM277.935 252.361L276.612 248.947C311.686 225.181 359.833 228.788 390.938 259.768C392.801 261.624 394.566 263.54 396.231 265.511L381.328 280.354C399.872 304.788 400.065 338.648 381.908 363.274L397.775 379.078C395.667 381.713 393.388 384.258 390.938 386.698C355.734 421.761 298.701 421.761 263.496 386.698C262.321 385.528 261.186 384.333 260.089 383.116L273.299 369.96L273.348 370.008C251.906 346.729 250.65 311.617 269.533 286.943L254.204 271.677C260.875 264.118 268.84 257.555 277.935 252.361Z" fill="url(#paint14_radial_1628_69236)" style="mix-blend-mode:color-dodge"/>
</g>
<path d="M288.647 317.88V314.48H293.287V316.4L294.887 318H302.167L303.767 316.4V309.16L301.287 311.64H292.367L288.247 307.52V298.12L292.367 294H304.287L308.407 298.12V317.88L304.287 322H292.767L288.647 317.88ZM300.807 307.64L303.767 304.68V299.6L302.167 298H294.487L292.887 299.6V306.04L294.487 307.64H300.807ZM313.413 317.88V314.48H318.053V316.4L319.653 318H326.933L328.533 316.4V309.16L326.053 311.64H317.133L313.013 307.52V298.12L317.133 294H329.053L333.173 298.12V317.88L329.053 322H317.533L313.413 317.88ZM325.573 307.64L328.533 304.68V299.6L326.933 298H319.253L317.653 299.6V306.04L319.253 307.64H325.573ZM337.378 305.72V297L340.378 294H347.058L350.058 297V305.72L347.058 308.72H340.378L337.378 305.72ZM358.138 294H362.778L347.418 322H342.778L358.138 294ZM345.098 305.28L346.058 304.32V298.4L345.098 297.44H342.338L341.338 298.4V304.32L342.338 305.28H345.098ZM355.458 319V310.28L358.458 307.28H365.138L368.138 310.28V319L365.138 322H358.458L355.458 319ZM363.178 318.56L364.138 317.6V311.68L363.178 310.72H360.418L359.418 311.68V317.6L360.418 318.56H363.178ZM280.951 351.312V339.888L283.639 337.2H291.559L294.247 339.888V351.312L291.559 354H283.639L280.951 351.312ZM290.455 351.984L291.943 350.496V340.704L290.455 339.216H284.743L283.255 340.704V350.496L284.743 351.984H290.455ZM297.477 342.048H299.613V344.064L301.605 342.048H306.165L308.445 344.352V351.696L306.165 354H301.533L299.709 352.416V359.088H297.477V342.048ZM305.133 352.056L306.213 350.976V345.072L305.133 343.992H302.061L299.709 346.368V350.088L301.893 352.056H305.133ZM312.291 351.72V343.968H310.131V342.048H312.339V338.16H314.523V342.048H318.243V343.992H314.523V351L315.603 352.056H318.243V354H314.595L312.291 351.72ZM320.654 339.384V338.184L321.494 337.32H322.766L323.606 338.184V339.384L322.766 340.248H321.494L320.654 339.384ZM321.014 342.048H323.246V354H321.014V342.048ZM326.844 342.048H328.98V344.232L331.164 342.048H334.068L335.868 343.848L337.644 342.048H341.556L343.884 344.376V354H341.652V345.072L340.572 343.992H338.148L336.588 345.552V354H334.428V345.048L333.372 343.992H331.548L329.076 346.464V354H326.844V342.048ZM346.998 339.384V338.184L347.838 337.32H349.11L349.95 338.184V339.384L349.11 340.248H347.838L346.998 339.384ZM347.358 342.048H349.59V354H347.358V342.048ZM352.348 352.08L359.5 343.944V343.896H352.588V342.048H362.236V343.968L355.084 352.104V352.152H362.236V354H352.348V352.08ZM364.409 351.72V344.352L366.713 342.048H372.977L375.281 344.352V348.72H366.641V351.024L367.697 352.08H371.993L373.049 351.048V350.232H375.257V351.72L373.001 354H366.689L364.409 351.72ZM373.049 346.968V345.024L371.969 343.968H367.721L366.641 345.024V346.968H373.049Z" fill="white"/>
<defs>
<linearGradient id="paint0_linear_1628_69236" x1="144.989" y1="37.0579" x2="675.867" y2="295.249" gradientUnits="userSpaceOnUse">
<stop stop-color="white" stop-opacity="0.17"/>
<stop offset="0.328125" stop-color="white"/>
<stop offset="0.65625" stop-color="white" stop-opacity="0.15"/>
<stop offset="1" stop-color="white"/>
</linearGradient>
<linearGradient id="paint1_linear_1628_69236" x1="109.61" y1="449.111" x2="422.944" y2="174.758" gradientUnits="userSpaceOnUse">
<stop stop-opacity="0"/>
<stop offset="1" stop-color="white"/>
</linearGradient>
<linearGradient id="paint2_linear_1628_69236" x1="544.728" y1="449.111" x2="231.394" y2="174.758" gradientUnits="userSpaceOnUse">
<stop stop-opacity="0"/>
<stop offset="1" stop-color="white"/>
</linearGradient>
<linearGradient id="paint3_linear_1628_69236" x1="546.27" y1="573.5" x2="168.288" y2="138.294" gradientUnits="userSpaceOnUse">
<stop stop-opacity="0"/>
<stop offset="1" stop-color="white"/>
</linearGradient>
<linearGradient id="paint4_linear_1628_69236" x1="64.0001" y1="132" x2="635.898" y2="253.895" gradientUnits="userSpaceOnUse">
<stop offset="0.338543" stop-opacity="0"/>
<stop offset="1" stop-color="white"/>
</linearGradient>
<linearGradient id="paint5_linear_1628_69236" x1="-90.4865" y1="379.491" x2="624.094" y2="426.898" gradientUnits="userSpaceOnUse">
<stop offset="0.400339" stop-opacity="0"/>
<stop offset="1" stop-color="white"/>
</linearGradient>
<linearGradient id="paint6_linear_1628_69236" x1="471" y1="172.499" x2="24.075" y2="223.629" gradientUnits="userSpaceOnUse">
<stop stop-opacity="0"/>
<stop offset="1" stop-color="white"/>
</linearGradient>
<linearGradient id="paint7_linear_1628_69236" x1="109.61" y1="449.111" x2="422.944" y2="174.758" gradientUnits="userSpaceOnUse">
<stop stop-opacity="0"/>
<stop offset="1" stop-color="white"/>
</linearGradient>
<linearGradient id="paint8_linear_1628_69236" x1="190.671" y1="-95.9032" x2="419.199" y2="645.295" gradientUnits="userSpaceOnUse">
<stop stop-opacity="0"/>
<stop offset="1" stop-color="white"/>
</linearGradient>
<linearGradient id="paint9_linear_1628_69236" x1="65.8766" y1="405" x2="321.117" y2="678.049" gradientUnits="userSpaceOnUse">
<stop stop-color="#DD1000"/>
<stop offset="0.836458" stop-color="#4A4A4A"/>
</linearGradient>
<linearGradient id="paint10_linear_1628_69236" x1="44.7987" y1="86" x2="315.016" y2="189.236" gradientUnits="userSpaceOnUse">
<stop stop-color="#DD1000"/>
<stop offset="0.836458" stop-color="#4A4A4A"/>
</linearGradient>
<linearGradient id="paint11_linear_1628_69236" x1="422.805" y1="248" x2="692.142" y2="350.025" gradientUnits="userSpaceOnUse">
<stop stop-color="#DD1000"/>
<stop offset="0.836458" stop-color="#4A4A4A"/>
</linearGradient>
<linearGradient id="paint12_linear_1628_69236" x1="-75.1304" y1="394.269" x2="600.494" y2="439.102" gradientUnits="userSpaceOnUse">
<stop stop-opacity="0"/>
<stop offset="1" stop-color="white"/>
</linearGradient>
<linearGradient id="paint13_linear_1628_69236" x1="255.013" y1="55" x2="475.775" y2="308.646" gradientUnits="userSpaceOnUse">
<stop stop-color="#DD1000"/>
<stop offset="0.836458" stop-color="#4A4A4A"/>
</linearGradient>
<radialGradient id="paint14_radial_1628_69236" cx="0" cy="0" r="1" gradientUnits="userSpaceOnUse" gradientTransform="translate(327.012 331.007) rotate(90) scale(225.017 229.008)">
<stop offset="0.489583" stop-color="#DD1000"/>
<stop offset="1" stop-color="#DD1000" stop-opacity="0"/>
</radialGradient>
</defs>
</svg>
